<svg width="20" height="20" viewBox="0 0 20 20" fill="none" xmlns="http://www.w3.org/2000/svg">
<path d="M5 6.66658V5.83325C5 3.07183 7.23857 0.833252 10 0.833252C12.7614 0.833252 15 3.07183 15 5.83325V6.66658H16.6667C17.1269 6.66658 17.5 7.03969 17.5 7.49992V17.4999C17.5 17.9602 17.1269 18.3333 16.6667 18.3333H3.33333C2.8731 18.3333 2.5 17.9602 2.5 17.4999V7.49992C2.5 7.03969 2.8731 6.66658 3.33333 6.66658H5ZM15.8333 8.33325H4.16667V16.6666H15.8333V8.33325ZM9.16667 13.1103C8.6685 12.8221 8.33333 12.2835 8.33333 11.6666C8.33333 10.7461 9.0795 9.99992 10 9.99992C10.9205 9.99992 11.6667 10.7461 11.6667 11.6666C11.6667 12.2835 11.3315 12.8221 10.8333 13.1103V14.9999H9.16667V13.1103ZM6.66667 6.66658H13.3333V5.83325C13.3333 3.9923 11.8409 2.49992 10 2.49992C8.15905 2.49992 6.66667 3.9923 6.66667 5.83325V6.66658Z" fill="white"/>
</svg>
