<svg width="20" height="14" viewBox="0 0 20 14" fill="none" xmlns="http://www.w3.org/2000/svg">
<path d="M17.9533 6.20425C18.2067 6.55925 18.3333 6.73758 18.3333 7.00008C18.3333 7.26342 18.2067 7.44091 17.9533 7.79591C16.815 9.39258 13.9075 12.8334 9.99999 12.8334C6.09166 12.8334 3.18499 9.39175 2.04666 7.79591C1.79332 7.44091 1.66666 7.26258 1.66666 7.00008C1.66666 6.73675 1.79332 6.55925 2.04666 6.20425C3.18499 4.60758 6.09249 1.16675 9.99999 1.16675C13.9083 1.16675 16.815 4.60841 17.9533 6.20425Z" stroke="white" stroke-width="1.5" stroke-linecap="round" stroke-linejoin="round"/>
<path d="M12.5 7C12.5 6.33696 12.2366 5.70107 11.7678 5.23223C11.2989 4.76339 10.663 4.5 10 4.5C9.33696 4.5 8.70107 4.76339 8.23223 5.23223C7.76339 5.70107 7.5 6.33696 7.5 7C7.5 7.66304 7.76339 8.29893 8.23223 8.76777C8.70107 9.23661 9.33696 9.5 10 9.5C10.663 9.5 11.2989 9.23661 11.7678 8.76777C12.2366 8.29893 12.5 7.66304 12.5 7Z" stroke="white" stroke-width="1.5" stroke-linecap="round" stroke-linejoin="round"/>
</svg>
