<svg width="64" height="64" viewBox="0 0 64 64" fill="none" xmlns="http://www.w3.org/2000/svg">
<path d="M58.0799 15.4132C58.4332 15.0341 58.6255 14.5327 58.6164 14.0145C58.6072 13.4964 58.3973 13.002 58.0309 12.6356C57.6645 12.2692 57.1701 12.0593 56.652 12.0501C56.1338 12.041 55.6324 12.2333 55.2533 12.5866L35.2533 32.5866C35.0568 32.7697 34.8991 32.9905 34.7898 33.2358C34.6805 33.4811 34.6217 33.746 34.617 34.0145C34.6123 34.2831 34.6617 34.5498 34.7623 34.7988C34.8628 35.0479 35.0126 35.2741 35.2025 35.464C35.3924 35.6539 35.6186 35.8037 35.8677 35.9042C36.1167 36.0048 36.3834 36.0542 36.652 36.0495C36.9205 36.0448 37.1854 35.986 37.4307 35.8767C37.676 35.7674 37.8968 35.6097 38.0799 35.4132L58.0799 15.4132ZM58.5253 18.7412C58.6195 19.191 58.6666 19.655 58.6666 20.1332V29.3332V38.5332C58.6666 39.4262 58.4907 40.3105 58.149 41.1355C57.8072 41.9605 57.3064 42.7101 56.6749 43.3416C56.0435 43.973 55.2938 44.4739 54.4688 44.8156C53.6438 45.1574 52.7596 45.3332 51.8666 45.3332H12.1333C11.2403 45.3332 10.356 45.1574 9.531 44.8156C8.70599 44.4739 7.95636 43.973 7.32493 43.3416C6.69349 42.7101 6.1926 41.9605 5.85087 41.1355C5.50914 40.3105 5.33325 39.4262 5.33325 38.5332V20.1332C5.33325 18.3298 6.04968 16.6002 7.32493 15.3249C8.60017 14.0497 10.3298 13.3332 12.1333 13.3332H50.7333L46.7333 17.3332H44.5L41.5 13.3332H31.5L34.5 17.3332H12.1333C10.5866 17.3332 9.33325 18.5866 9.33325 20.1332V38.5332C9.33325 40.0799 10.5866 41.3332 12.1333 41.3332H51.8666C53.4133 41.3332 54.6666 40.0799 54.6666 38.5332V37L58.6666 38.5332V31L54.6666 28V22.5999L58.5253 18.7412ZM11.9999 24.6666C11.9999 24.1361 12.2106 23.6274 12.5857 23.2524C12.9608 22.8773 13.4695 22.6666 13.9999 22.6666H19.3333C19.8637 22.6666 20.3724 22.8773 20.7475 23.2524C21.1225 23.6274 21.3333 24.1361 21.3333 24.6666C21.3333 25.197 21.1225 25.7057 20.7475 26.0808C20.3724 26.4559 19.8637 26.6666 19.3333 26.6666H13.9999C13.4695 26.6666 12.9608 26.4559 12.5857 26.0808C12.2106 25.7057 11.9999 25.197 11.9999 24.6666ZM11.9999 33.9999C11.9999 33.4695 12.2106 32.9608 12.5857 32.5857C12.9608 32.2106 13.4695 31.9999 13.9999 31.9999H27.3333C27.8637 31.9999 28.3724 32.2106 28.7475 32.5857C29.1225 32.9608 29.3333 33.4695 29.3333 33.9999C29.3333 34.5303 29.1225 35.0391 28.7475 35.4141C28.3724 35.7892 27.8637 35.9999 27.3333 35.9999H13.9999C13.4695 35.9999 12.9608 35.7892 12.5857 35.4141C12.2106 35.0391 11.9999 34.5303 11.9999 33.9999Z" fill="white"/>
<path d="M56.5 34L36.5 14" stroke="white" stroke-width="4" stroke-linecap="round" stroke-linejoin="round"/>
</svg>
