<svg width="19" height="15" viewBox="0 0 19 15" fill="none" xmlns="http://www.w3.org/2000/svg">
<path d="M9.99917 6.25864C9.9829 6.23876 9.9621 6.22268 9.93835 6.21163C9.91461 6.20057 9.88855 6.19482 9.86214 6.19482C9.83572 6.19482 9.80966 6.20057 9.78592 6.21163C9.76217 6.22268 9.74138 6.23876 9.7251 6.25864L7.28887 9.20458C7.26879 9.2291 7.25632 9.25852 7.25291 9.28948C7.24949 9.32044 7.25526 9.3517 7.26956 9.37967C7.28386 9.40765 7.3061 9.43122 7.33375 9.44768C7.3614 9.46415 7.39333 9.47284 7.42591 9.47277H9.03338V14.5123C9.03338 14.6037 9.11169 14.6786 9.2074 14.6786H10.5125C10.6082 14.6786 10.6865 14.6037 10.6865 14.5123V9.47485H12.2984C12.4441 9.47485 12.5246 9.31477 12.4354 9.20666L9.99917 6.25864Z" fill="white"/>
<path d="M15.9684 4.59311C15.0344 2.09671 12.6545 0.321533 9.86664 0.321533C7.07882 0.321533 4.69888 2.09464 3.76485 4.59104C2.01712 5.05602 0.726196 6.67 0.726196 8.58777C0.726196 10.8713 2.55143 12.7209 4.80289 12.7209H5.62068C5.71041 12.7209 5.78383 12.6465 5.78383 12.5556V11.3156C5.78383 11.2247 5.71041 11.1503 5.62068 11.1503H4.80289C4.11562 11.1503 3.46914 10.8734 2.98785 10.3712C2.5086 9.8711 2.25368 9.1974 2.27612 8.49891C2.29447 7.95333 2.47801 7.44083 2.81043 7.00892C3.151 6.56874 3.62822 6.24842 4.15845 6.10583L4.93137 5.90124L5.21484 5.14488C5.39023 4.67371 5.63495 4.23353 5.9429 3.83468C6.24691 3.43937 6.60703 3.09186 7.01153 2.80347C7.8497 2.20623 8.83676 1.89005 9.86664 1.89005C10.8965 1.89005 11.8836 2.20623 12.7218 2.80347C13.1276 3.09279 13.4865 3.43997 13.7904 3.83468C14.0983 4.23353 14.343 4.67577 14.5184 5.14488L14.7999 5.89917L15.5707 6.10583C16.6761 6.40755 17.449 7.42636 17.449 8.58777C17.449 9.2718 17.1859 9.91656 16.7087 10.4001C16.4747 10.6387 16.1963 10.8278 15.8896 10.9566C15.583 11.0853 15.2542 11.1512 14.9222 11.1503H14.1044C14.0147 11.1503 13.9413 11.2247 13.9413 11.3156V12.5556C13.9413 12.6465 14.0147 12.7209 14.1044 12.7209H14.9222C17.1737 12.7209 18.9989 10.8713 18.9989 8.58777C18.9989 6.67207 17.7121 5.06015 15.9684 4.59311Z" fill="white"/>
</svg>
