<svg width="20" height="20" viewBox="0 0 20 20" fill="none" xmlns="http://www.w3.org/2000/svg">
<path d="M16.6666 18.3333H15V16.6666C15 15.2858 13.8807 14.1666 12.5 14.1666H7.49998C6.11927 14.1666 4.99998 15.2858 4.99998 16.6666V18.3333H3.33331V16.6666C3.33331 14.3654 5.1988 12.4999 7.49998 12.4999H12.5C14.8011 12.4999 16.6666 14.3654 16.6666 16.6666V18.3333ZM9.99998 10.8333C7.23855 10.8333 4.99998 8.59467 4.99998 5.83325C4.99998 3.07183 7.23855 0.833252 9.99998 0.833252C12.7614 0.833252 15 3.07183 15 5.83325C15 8.59467 12.7614 10.8333 9.99998 10.8333ZM9.99998 9.16658C11.8409 9.16658 13.3333 7.6742 13.3333 5.83325C13.3333 3.9923 11.8409 2.49992 9.99998 2.49992C8.15903 2.49992 6.66665 3.9923 6.66665 5.83325C6.66665 7.6742 8.15903 9.16658 9.99998 9.16658Z" fill="white"/>
</svg>
